<svg viewBox="-71 0 512 512.00023" xmlns="http://www.w3.org/2000/svg"><path d="m113.71875 358.328125-58.96875 130.875c-4.816406 10.613281-17.324219 15.3125-27.9375 10.5-10.609375-4.816406-15.3125-17.324219-10.496094-27.9375l59.96875-131.875" fill="#ce8570"/><path d="m219.667969 199.390625h140.46875v18.03125c0 81.660156-66.195313 147.855469-147.855469 147.855469h-54.410156c-81.660156 0-147.859375-66.195313-147.859375-147.855469v-18.03125h136.242187" fill="#ffde55"/><path d="m259.390625 358.328125 58.96875 130.875c4.8125 10.613281 17.320313 15.3125 27.933594 10.5 10.613281-4.816406 15.3125-17.324219 10.5-27.9375l-59.96875-131.875" fill="#ce8570"/><path d="m204.152344 364.902344h8.621094c57.582031 0 107.476562-32.917969 131.894531-80.960938l-319.183594-1.976562c24.039063 49.117187 74.507813 82.9375 132.878906 82.9375" fill="#dbad5c"/><path d="m181.402344 501.988281c11.652344 0 21.101562-9.449219 21.101562-21.101562v-136.351563c0-11.652344-9.449218-21.101562-21.101562-21.101562s-21.101563 9.449218-21.101563 21.101562v136.351563c0 11.652343 9.449219 21.101562 21.101563 21.101562zm0 0" fill="#ce8570"/><path d="m187.621094 128.925781c1.214844.484375 2.46875.714844 3.703125.714844 3.976562 0 7.742187-2.390625 9.300781-6.308594 2.046875-5.136719-.457031-10.960937-5.59375-13.007812-.1875-.074219-18.703125-8.015625-18.703125-20.59375 0-5.140625 7.617187-11.210938 14.984375-17.082031 10.558594-8.414063 22.527344-17.953126 22.527344-32.742188 0-26.410156-30.035156-38.683594-31.3125-39.191406-5.136719-2.046875-10.960938.457031-13.003906 5.59375-2.046876 5.136718.457031 10.957031 5.59375 13.003906.1875.078125 18.703124 8.019531 18.703124 20.59375 0 5.144531-7.617187 11.214844-14.984374 17.082031-10.558594 8.417969-22.527344 17.953125-22.527344 32.742188 0 26.414062 30.035156 38.683593 31.3125 39.195312zm0 0"/><path d="m262.648438 128.925781c1.214843.484375 2.46875.714844 3.703124.714844 3.976563 0 7.742188-2.390625 9.300782-6.308594 2.046875-5.136719-.457032-10.960937-5.59375-13.007812-.1875-.074219-18.703125-8.015625-18.703125-20.59375 0-5.140625 7.617187-11.210938 14.984375-17.082031 10.558594-8.414063 22.53125-17.953126 22.53125-32.742188 0-26.410156-30.039063-38.683594-31.316406-39.191406-5.136719-2.046875-10.960938.457031-13.003907 5.59375-2.046875 5.136718.457031 10.957031 5.59375 13.003906.1875.078125 18.703125 8.019531 18.703125 20.59375 0 5.144531-7.617187 11.214844-14.984375 17.082031-10.558593 8.417969-22.527343 17.953125-22.527343 32.742188 0 26.414062 30.035156 38.683593 31.3125 39.195312zm0 0"/><path d="m112.59375 128.925781c1.214844.484375 2.46875.714844 3.703125.714844 3.976563 0 7.742187-2.390625 9.304687-6.308594 2.042969-5.136719-.460937-10.960937-5.597656-13.007812-.1875-.074219-18.703125-8.015625-18.703125-20.59375 0-5.140625 7.617188-11.210938 14.984375-17.082031 10.5625-8.414063 22.53125-17.953126 22.53125-32.742188 0-26.410156-30.035156-38.683594-31.316406-39.191406-5.132812-2.046875-10.957031.457031-13.003906 5.59375-2.046875 5.136718.457031 10.957031 5.59375 13.003906.1875.078125 18.703125 8.019531 18.703125 20.59375 0 5.144531-7.617188 11.214844-14.984375 17.082031-10.558594 8.417969-22.527344 17.953125-22.527344 32.742188 0 26.414062 30.035156 38.683593 31.3125 39.195312zm0 0"/><path d="m353.59375 288.476562c.488281-.960937.789062-1.984374.949219-3.019531 10-20.707031 15.605469-43.917969 15.605469-68.410156v-18.03125c0-5.53125-4.480469-10.011719-10.011719-10.011719h-140.46875c-5.527344 0-10.011719 4.480469-10.011719 10.011719 0 5.527344 4.484375 10.011719 10.011719 10.011719h130.457031v8.019531c0 20.253906-4.390625 39.5-12.273438 56.839844l-306.390624-1.894531c-7.351563-16.84375-11.4375-35.425782-11.4375-54.949219v-8.019531h126.230468c5.527344 0 10.011719-4.480469 10.011719-10.007813 0-5.53125-4.484375-10.011719-10.011719-10.011719h-136.242187c-5.53125 0-10.011719 4.480469-10.011719 10.011719v18.027344c0 51.742187 25.023438 97.75 63.597656 126.558593l-56.398437 124.03125c-7.089844 15.621094-.144531 34.097657 15.476562 41.1875 4.105469 1.859376 8.46875 2.792969 12.839844 2.792969 3.695313 0 7.398437-.664062 10.960937-2.003906 7.777344-2.925781 13.953126-8.703125 17.398438-16.292969l55.492188-123.160156c9.96875 2.507812 20.308593 4.070312 30.921874 4.574219v106.15625c0 17.15625 13.957032 31.113281 31.113282 31.113281s31.113281-13.957031 31.113281-31.113281v-105.972657h.257813c.4375 0 .871093-.019531 1.308593-.023437.933594-.011719 1.863281-.023437 2.789063-.050781 12.441406-.320313 24.71875-2.097656 36.609375-5.265625l55.761719 123.761719c3.433593 7.570312 9.609374 13.347656 17.386718 16.273437 3.566406 1.335937 7.265625 2.003906 10.960938 2.003906 4.375 0 8.738281-.9375 12.839844-2.796875 7.570312-3.433594 13.347656-9.609375 16.269531-17.386718 2.925781-7.777344 2.644531-16.230469-.792969-23.808594l-57.003906-125.355469c18.675781-14.347656 33.976562-32.707031 44.691406-53.789063zm-26.894531 5.363282c-24.144531 35.855468-64.675781 59.800781-110.769531 61.003906-.296876.007812-.589844.007812-.882813.011719-.84375.019531-1.6875.03125-2.53125.035156v-10.355469c0-17.15625-13.957031-31.109375-31.113281-31.109375s-31.113282 13.953125-31.113282 31.109375v10.117188c-24.261718-1.386719-47.121093-8.984375-66.746093-21.652344-.863281-.90625-1.90625-1.671875-3.113281-2.222656-.167969-.078125-.34375-.136719-.515626-.203125-14.617187-10.113281-27.304687-23.101563-37.242187-38.488281zm-281.070313 191.226562c-1.222656 2.699219-3.421875 4.757813-6.195312 5.800782-2.773438 1.042968-5.785156.941406-8.484375-.28125-5.570313-2.527344-8.042969-9.113282-5.523438-14.671876l55.144531-121.261718c6.285157 3.542968 12.832032 6.679687 19.609376 9.347656zm146.863282-4.179687c0 6.113281-4.976563 11.089843-11.089844 11.089843-6.117188 0-11.089844-4.976562-11.089844-11.089843v-136.351563c0-6.113281 4.972656-11.089844 11.089844-11.089844 6.113281 0 11.089844 4.976563 11.089844 11.089844zm155.464843 3.5c-1.042969 2.773437-3.101562 4.972656-5.800781 6.199219-2.695312 1.222656-5.707031 1.320312-8.480469.28125-2.773437-1.042969-4.976562-3.105469-6.1875-5.777344l-54.929687-121.910156c6.691406-2.738282 13.203125-5.9375 19.492187-9.597657l55.625 122.320313c1.222657 2.699218 1.324219 5.710937.28125 8.484375zm0 0"/><path d="m177.878906 190.53125-.265625.175781c-4.636719 3.011719-5.953125 9.210938-2.941406 13.847657 1.917969 2.953124 5.128906 4.558593 8.402344 4.558593 1.871093 0 3.761719-.523437 5.445312-1.617187l.269531-.175782c4.632813-3.011718 5.953126-9.210937 2.941407-13.847656-3.015625-4.636718-9.214844-5.953125-13.851563-2.941406zm0 0"/></svg>