<svg height="511pt" viewBox="0 -173 511.99923 511" width="511pt" xmlns="http://www.w3.org/2000/svg"><path d="m256 .5c-97.445312 0-183.632812 27.523438-236.023438 69.703125-38.609374 31.078125-17.503906 95.457031 31.292969 95.457031h409.460938c48.796875 0 69.902343-64.378906 31.292969-95.457031-52.394532-42.179687-138.578126-69.703125-236.023438-69.703125zm0 0" fill="#ffc269"/><path d="m95.039062 140.886719c-45.023437 0-67.492187-54.898438-44.660156-91.359375-11.054687 6.390625-21.277344 13.332031-30.402344 20.675781-38.609374 31.078125-17.503906 95.457031 31.292969 95.457031h409.460938c19.542969 0 34.6875-10.398437 43.289062-24.773437zm0 0" fill="#ffa95f"/><g fill="#ffe07d"><path d="m370.914062 14.054688c-10.953124-2.714844-22.265624-5.050782-33.871093-6.980469-11.398438 21.117187-19.585938 42.195312-24.355469 61.511719-1.296875 5.257812 5.101562 9.109374 9.136719 5.5 17.167969-15.367188 34.234375-35.871094 49.089843-60.03125zm0 0"/><path d="m265.171875.582031c-13.292969 23.273438-22.722656 46.683594-27.996094 67.96875-1.304687 5.265625 5.113281 9.125 9.15625 5.507813 19.820313-17.722656 39.523438-42.285156 55.820313-71.46875-12.082032-1.105469-24.445313-1.785156-36.980469-2.007813zm0 0"/><path d="m144.910156 13.128906c-15.335937 3.648438-30 8.015625-43.863281 13.054688-6.550781 14.550781-11.585937 28.921875-14.925781 42.375-1.304688 5.261718 5.105468 9.125 9.144531 5.507812 17.375-15.546875 34.667969-36.386718 49.644531-60.9375zm0 0"/><path d="m221.429688 11.566406c2.039062-3.394531 4.042968-6.867187 5.90625-10.261718-13.726563.773437-27.246094 2.09375-40.34375 3.925781-11.933594 21.746093-20.445313 43.449219-25.355469 63.339843-1.300781 5.261719 5.105469 9.121094 9.148437 5.507813 17.78125-15.898437 35.429688-37.21875 50.644532-62.511719zm0 0"/><path d="m404.246094 23.824219c-7.105469 15.402343-12.492188 30.550781-16.019532 44.757812-1.304687 5.25 5.101563 9.105469 9.132813 5.496094 12.011719-10.75 23.960937-24.007813 35.144531-39.253906-9.015625-3.976563-18.441406-7.644531-28.257812-11zm0 0"/></g></svg>